# xmcd
#
# Track frame offsets:
#	150
#	17715
#	34477
#	50769
#	67981
#	84093
#	100373
#	117513
#	133931
#	152940
#	174141
#	191252
#	212545
#	228625
#
# Disc length: 3281 seconds
#
# Revision: 1
# Processed by: cddbd v1.5.2PL0 Copyright (c) Steve Scherf et al.
# Submitted via: audiograbber 1.83.01
#
DISCID=bd0ccf0e
DTITLE=Ronan Keating - Destination
DYEAR=2002
DGENRE=Pop
TTITLE0=I love it when we do
TTITLE1=One more Word
TTITLE2=If Tomorrow never comes
TTITLE3=Come be my Baby
TTITLE4=Lovin' each Day
TTITLE5=My one Thing that is real
TTITLE6=Time for Love
TTITLE7=Blown away
TTITLE8=As much as i can give you
TTITLE9=You're picking me up
TTITLE10=Joy and Pain
TTITLE11=Long goodbye
TTITLE12=Lovin' each Day (Bonus Track)
TTITLE13=Life is a Rollercoaster (Bonus Track)
EXTD=
EXTT0=
EXTT1=
EXTT2=
EXTT3=
EXTT4=
EXTT5=
EXTT6=
EXTT7=
EXTT8=
EXTT9=
EXTT10=
EXTT11=
EXTT12=
EXTT13=
PLAYORDER=
